<?xml version="1.0" encoding="utf-8"?>
<!-- Generator: Adobe Illustrator 25.2.1, SVG Export Plug-In . SVG Version: 6.00 Build 0)  -->
<svg version="1.1" id="a1446b94-79a8-45dc-beee-b314ae1acdc1"
	 xmlns="http://www.w3.org/2000/svg" xmlns:xlink="http://www.w3.org/1999/xlink" x="0px" y="0px" viewBox="0 0 505.5 550.7"
	 style="enable-background:new 0 0 505.5 550.7;" xml:space="preserve">
<style type="text/css">
	.st0{fill:#9F616A;}
	.st1{fill:#3F3D56;}
	.st2{fill:#FFFFFF;}
	.st3{fill:#4BB04F;}
	.st4{fill:#E5E5E5;}
	.st5{opacity:0.2;enable-background:new    ;}
</style>
<path class="st0" d="M359.5,500.9l5,96c0,0-211.5-201.3-237.8-260.2s23.2-204.6,23.2-204.6l110,60.4L359.5,500.9z"/>
<path class="st0" d="M35.2,91.9L2.6,95c0,0-17,37.2,35.6,40.3L35.2,91.9z"/>
<path class="st0" d="M35.2,149.2l-32.5,3.1c0,0-17,37.2,35.6,40.3L35.2,149.2z"/>
<path class="st0" d="M35.2,211.2l-32.5,3.1c0,0-17,37.2,35.6,40.3L35.2,211.2z"/>
<path class="st0" d="M44.5,273.2l-32.5,3.1c0,0-17,37.2,35.6,40.3L44.5,273.2z"/>
<path class="st1" d="M19.3,106.8h2.5V39.2C21.8,17.5,39.3,0,61,0l0,0h143.3c21.6,0,39.2,17.5,39.2,39.2c0,0,0,0,0,0v371.2
	c0,21.6-17.5,39.2-39.2,39.2l0,0H61c-21.6,0-39.2-17.5-39.2-39.2l0,0V155h-2.5V106.8z"/>
<path class="st2" d="M59.4,10.2h18.7c-2.9,7.1,0.5,15.2,7.6,18.1c1.7,0.7,3.4,1,5.2,1h82.1c7.7,0,13.9-6.2,13.9-13.9
	c0-1.8-0.3-3.6-1-5.2h17.5c16.1,0,29.2,13.1,29.2,29.2l0,0V410c0,16.2-13.1,29.2-29.2,29.2h-144c-16.1,0-29.2-13.1-29.2-29.2l0,0
	V39.4C30.1,23.3,43.2,10.2,59.4,10.2C59.4,10.2,59.4,10.2,59.4,10.2z"/>
<rect x="100.5" y="114" class="st3" width="61.7" height="14.9"/>
<rect x="97.6" y="178" class="st4" width="67.6" height="14.9"/>
<rect x="56" y="210" class="st4" width="150.9" height="14.9"/>
<rect x="56" y="242" class="st4" width="150.9" height="14.9"/>
<path class="st0" d="M505.5,550.9L332,353l-6.2-127.1l-65.1-108.5l-18.6-46.5c0,0-43.4,4.6-7.7,93l14.7,47.3l0,0
	c-13.3,28.6-20.1,59.7-20.1,91.2v108.3c0,25.5,121.5,164.4,135.7,185.7l0,0L505.5,550.9z"/>
<polygon class="st5" points="247.2,126.6 260.1,120.3 259.7,119.4 247.7,125.3 229.7,77.9 228.8,78.3 "/>
<rect x="11.7" y="88.3" transform="matrix(0.3457 -0.9384 0.9384 0.3457 -84.4327 75.9155)" class="st5" width="1" height="20.4"/>
<rect x="11.7" y="146.3" transform="matrix(0.3457 -0.9384 0.9384 0.3457 -138.8575 113.8673)" class="st5" width="1" height="20.4"/>
<rect x="11.7" y="208.3" transform="matrix(0.3457 -0.9384 0.9384 0.3457 -197.0358 154.4364)" class="st5" width="1" height="20.4"/>
<rect x="16.8" y="274" transform="matrix(0.4327 -0.9015 0.9015 0.4327 -241.9023 173.9899)" class="st5" width="1" height="10.4"/>
<ellipse transform="matrix(7.088901e-02 -0.9975 0.9975 7.088901e-02 -219.1635 449.0589)" class="st3" cx="131.5" cy="342.2" rx="43.2" ry="43.2"/>
<polygon class="st2" points="127.4,360.4 114.4,343.8 121.9,337.9 128.1,345.8 148.8,324 155.7,330.5 "/>
</svg>
