<?xml version="1.0" encoding="utf-8"?>
<!-- Generator: Adobe Illustrator 25.2.1, SVG Export Plug-In . SVG Version: 6.00 Build 0)  -->
<svg version="1.1" id="b1f1afb9-699e-4a16-81b4-9019b38ca3d5"
	 xmlns="http://www.w3.org/2000/svg" xmlns:xlink="http://www.w3.org/1999/xlink" x="0px" y="0px" viewBox="0 0 505.5 550.4"
	 style="enable-background:new 0 0 505.5 550.4;" xml:space="preserve">
<style type="text/css">
	.st0{fill:#9F616A;}
	.st1{fill:#3F3D56;}
	.st2{fill:#F1F1F1;}
	.st3{opacity:0.2;enable-background:new    ;}
	.st4{fill:#2F2E41;}
	.st5{fill:#4BB04F;}
	.st6{fill:#FFFFFF;}
	.st7{fill:#CBCBCB;}
	.st8{fill:#E5E5E5;}
</style>
<path class="st0" d="M146,500.9l-5,96c0,0,211.5-201.3,237.8-260.2s-23.2-204.6-23.2-204.6l-110,60.4L146,500.9z"/>
<path class="st0" d="M470.3,91.9l32.5,3.1c0,0,17,37.2-35.6,40.3L470.3,91.9z"/>
<path class="st0" d="M470.3,149.2l32.5,3.1c0,0,17,37.2-35.6,40.3L470.3,149.2z"/>
<path class="st0" d="M470.3,211.2l32.5,3.1c0,0,17,37.2-35.6,40.3L470.3,211.2z"/>
<path class="st0" d="M461,273.2l32.5,3.1c0,0,17,37.2-35.6,40.3L461,273.2z"/>
<path class="st1" d="M486.1,106.8h-2.5V39.2c0-21.6-17.5-39.2-39.2-39.2c0,0,0,0,0,0H301.2C279.5,0,262,17.5,262,39.2c0,0,0,0,0,0
	v371.2c0,21.6,17.5,39.2,39.2,39.2l0,0h143.3c21.6,0,39.2-17.5,39.2-39.2V155h2.5V106.8z"/>
<path class="st2" d="M475.3,39.4V410c0,16.1-13.1,29.2-29.2,29.2c0,0,0,0,0,0h-144c-16.1,0-29.2-13.1-29.2-29.2c0,0,0,0,0,0V39.4
	c0-16.1,13.1-29.2,29.2-29.2c0,0,0,0,0,0h17.5c-2.9,7.1,0.5,15.2,7.6,18.1c1.7,0.7,3.4,1,5.2,1h82.1c7.7,0,13.9-6.2,13.9-13.9
	c0-1.8-0.3-3.6-1-5.2h18.7C462.2,10.2,475.3,23.3,475.3,39.4C475.3,39.4,475.3,39.4,475.3,39.4z"/>
<rect x="483" y="98" transform="matrix(0.9384 -0.3457 0.3457 0.9384 -3.643 176.5679)" class="st3" width="20.4" height="1"/>
<rect x="483" y="156" transform="matrix(0.9384 -0.3457 0.3457 0.9384 -23.6913 180.1431)" class="st3" width="20.4" height="1"/>
<rect x="483" y="218" transform="matrix(0.9384 -0.3457 0.3457 0.9384 -45.1222 183.9648)" class="st3" width="20.4" height="1"/>
<rect x="483" y="278.7" transform="matrix(0.9015 -0.4327 0.4327 0.9015 -72.7469 238.7209)" class="st3" width="10.4" height="1"/>
<polygon class="st0" points="305.8,261.2 294.1,286.9 272.8,333.9 272.8,250.7 "/>
<path class="st4" d="M435.2,155.9c0,35.2-32.6,29.9-72.7,29.9s-72.7,5.3-72.7-29.9s15.9-97.6,72.7-97.6
	C421.3,58.3,435.2,120.7,435.2,155.9z"/>
<path class="st0" d="M472.7,279.3l2.6,16.6V410c0,5-1.3,10-3.8,14.4l-26.6-46.7l-9.6-97.7l-2.4-24.4l36.1,0.8L472.7,279.3z"/>
<path class="st4" d="M475.3,275.3c-1.3-4.2-3.5-11.2-5.9-19c-4.4-13.8-9.7-30.2-12.9-38c-6.1-14.9-37-8.9-37-8.9l-106-4
	c0,0-4-0.5-21.7-2.9c-7.5-1-13.9,9.5-19,21.9v39.2l24.7,1.9c-2,6.9-3.1,14.1-3.4,21.3c-0.3,9.9,1.5,20.9,9,27.7
	c16.2,14.8,21.4,81.2,21.4,81.2l-11.4,43.5h133c16.1,0,29.2-13.1,29.2-29.2c0,0,0,0,0,0v-16.1c-8.4-13.6-15.3-20.4-15.3-20.4
	l-23.8-93.6l36.4-0.6l2.7,0V275.3z"/>
<circle class="st0" cx="365.7" cy="133.3" r="48.9"/>
<path class="st4" d="M305.7,132L305.7,132h19.4l8.5-23.9l1.7,23.9h9.2l5-13.9l1,13.9h68.7l0,0c0-28.6-23.2-51.8-51.8-51.8h-10
	C328.9,80.3,305.7,103.4,305.7,132z"/>
<path class="st0" d="M0,550.9L173.5,353l6.2-127.1l65.1-108.5l18.6-46.5c0,0,43.4,4.6,7.7,93l-14.7,47.3l0,0
	c13.3,28.6,10.1,59.7,10.1,91.2v108.3c0,25.5-111.5,164.4-125.7,185.7l0,0L0,550.9z"/>
<polygon class="st3" points="258.3,126.6 245.3,120.3 245.8,119.4 257.7,125.3 275.8,77.9 276.7,78.3 "/>
<circle class="st5" cx="375.4" cy="394.3" r="27"/>
<circle class="st6" cx="312.4" cy="395.3" r="18.2"/>
<path class="st7" d="M312.4,414.3c-10.5,0-19-8.5-19-19s8.5-19,19-19s19,8.5,19,19C331.4,405.8,322.9,414.3,312.4,414.3z
	 M312.4,377.9c-9.6,0-17.4,7.8-17.4,17.4c0,9.6,7.8,17.4,17.4,17.4c9.6,0,17.4-7.8,17.4-17.4C329.9,385.7,322.1,377.9,312.4,377.9z"
	/>
<g id="aaa7a710-b437-4434-978d-0883174430d7">
	<path id="a7a108c7-0bd7-4f18-a7e8-a19423e60387" class="st8" d="M316.3,401.7h-17.7c0,0,0,0-0.1,0l8.4-14.5
		c0.2-0.3,0.5-0.4,0.8-0.2c0.1,0.1,0.2,0.1,0.2,0.2l5.6,9.8l0.3,0.5L316.3,401.7z"/>
	<path id="ad5937c6-b05a-482c-a1d5-f08ce1790654" class="st8" d="M326.2,401.7h-15.3l3-4.3l0.2-0.3l3.9-5.6c0.3-0.3,0.8-0.4,1.1-0.1
		c0,0,0,0,0.1,0.1c0,0,0,0,0.1,0.1L326.2,401.7z"/>
</g>
<circle class="st6" cx="437.4" cy="395.3" r="18.2"/>
<path class="st7" d="M437.4,414.3c-10.5,0-19-8.5-19-19s8.5-19,19-19s19,8.5,19,19C456.4,405.8,447.9,414.3,437.4,414.3z
	 M437.4,377.9c-9.6,0-17.4,7.8-17.4,17.4c0,9.6,7.8,17.4,17.4,17.4c9.6,0,17.4-7.8,17.4-17.4C454.9,385.7,447.1,377.9,437.4,377.9z"
	/>
<path class="st8" d="M445,393.4l-0.6,0.6v-4.3c0-0.5-0.4-0.9-0.9-0.9h-13c-0.5,0-0.9,0.4-0.9,0.9c0,0.5,0.4,0.9,0.9,0.9c0,0,0,0,0,0
	h12.1v3.4l-0.6-0.6c-0.3-0.3-0.9-0.3-1.2,0c-0.2,0.2-0.3,0.4-0.3,0.6v0c0,0.2,0.1,0.5,0.3,0.6l2.1,2.1c0.3,0.3,0.9,0.3,1.2,0l0,0
	l2.1-2.1c0.2-0.2,0.3-0.4,0.3-0.6v0c0-0.5-0.4-0.9-0.9-0.9C445.4,393.1,445.1,393.2,445,393.4z"/>
<path class="st8" d="M444.4,400.1h-12.1v-3.4l0.6,0.6c0.3,0.3,0.9,0.3,1.2,0c0.2-0.2,0.3-0.4,0.3-0.6v0c0-0.2-0.1-0.5-0.3-0.6
	l-2.1-2.1c-0.3-0.3-0.9-0.3-1.2,0l0,0l-2.1,2.1c-0.2,0.2-0.3,0.4-0.3,0.6v0c0,0.5,0.4,0.9,0.9,0.9c0.2,0,0.5-0.1,0.6-0.3l0.6-0.6
	v4.3c0,0.5,0.4,0.9,0.9,0.9h13c0.5,0,0.9-0.4,0.9-0.9C445.3,400.5,444.9,400.1,444.4,400.1C444.4,400.1,444.4,400.1,444.4,400.1
	L444.4,400.1z"/>
<rect x="283.7" y="45.6" class="st6" width="44.7" height="2"/>
<rect x="351.7" y="45.6" class="st6" width="44.7" height="2"/>
<rect x="419.7" y="45.6" class="st6" width="44.7" height="2"/>
<rect x="283.7" y="351.6" class="st6" width="44.7" height="2"/>
<rect x="351.7" y="351.6" class="st6" width="44.7" height="2"/>
<rect x="419.7" y="351.6" class="st6" width="44.7" height="2"/>
</svg>
